<mxfile host="Electron" agent="Mozilla/5.0 (Macintosh; Intel Mac OS X 10_15_7) AppleWebKit/537.36 (KHTML, like Gecko) draw.io/27.0.2 Chrome/134.0.6998.205 Electron/35.3.0 Safari/537.36" version="27.0.2">
  <diagram name="Страница — 1" id="BObtyVJlGN83evyDPj75">
    <mxGraphModel dx="1234" dy="916" grid="1" gridSize="10" guides="1" tooltips="1" connect="1" arrows="1" fold="1" page="1" pageScale="1" pageWidth="827" pageHeight="1169" math="0" shadow="0">
      <root>
        <mxCell id="0" />
        <mxCell id="1" parent="0" />
        <mxCell id="3iGg0btuq_YMwodRidnw-1" value="&lt;u&gt;ID&lt;/u&gt;" style="ellipse;whiteSpace=wrap;html=1;" vertex="1" parent="1">
          <mxGeometry x="62" y="590" width="120" height="80" as="geometry" />
        </mxCell>
        <mxCell id="3iGg0btuq_YMwodRidnw-2" value="password" style="ellipse;whiteSpace=wrap;html=1;" vertex="1" parent="1">
          <mxGeometry x="62" y="770" width="120" height="80" as="geometry" />
        </mxCell>
        <mxCell id="3iGg0btuq_YMwodRidnw-3" value="mail" style="ellipse;whiteSpace=wrap;html=1;" vertex="1" parent="1">
          <mxGeometry x="62" y="680" width="120" height="80" as="geometry" />
        </mxCell>
        <mxCell id="3iGg0btuq_YMwodRidnw-7" style="edgeStyle=orthogonalEdgeStyle;rounded=1;orthogonalLoop=1;jettySize=auto;html=1;entryX=1;entryY=0.5;entryDx=0;entryDy=0;curved=0;endArrow=none;startFill=0;" edge="1" parent="1" source="3iGg0btuq_YMwodRidnw-4" target="3iGg0btuq_YMwodRidnw-3">
          <mxGeometry relative="1" as="geometry" />
        </mxCell>
        <mxCell id="3iGg0btuq_YMwodRidnw-9" style="edgeStyle=orthogonalEdgeStyle;rounded=1;orthogonalLoop=1;jettySize=auto;html=1;exitX=0.5;exitY=1;exitDx=0;exitDy=0;entryX=1;entryY=0.5;entryDx=0;entryDy=0;curved=0;endArrow=none;startFill=0;" edge="1" parent="1" source="3iGg0btuq_YMwodRidnw-4" target="3iGg0btuq_YMwodRidnw-2">
          <mxGeometry relative="1" as="geometry" />
        </mxCell>
        <mxCell id="3iGg0btuq_YMwodRidnw-11" style="edgeStyle=orthogonalEdgeStyle;rounded=1;orthogonalLoop=1;jettySize=auto;html=1;entryX=0;entryY=0.5;entryDx=0;entryDy=0;curved=0;endArrow=none;startFill=0;" edge="1" parent="1" source="3iGg0btuq_YMwodRidnw-4" target="3iGg0btuq_YMwodRidnw-10">
          <mxGeometry relative="1" as="geometry" />
        </mxCell>
        <mxCell id="3iGg0btuq_YMwodRidnw-12" value="n" style="edgeLabel;html=1;align=center;verticalAlign=middle;resizable=0;points=[];" vertex="1" connectable="0" parent="3iGg0btuq_YMwodRidnw-11">
          <mxGeometry x="0.4815" y="2" relative="1" as="geometry">
            <mxPoint as="offset" />
          </mxGeometry>
        </mxCell>
        <mxCell id="3iGg0btuq_YMwodRidnw-4" value="Конечный пользователь" style="rounded=0;whiteSpace=wrap;html=1;" vertex="1" parent="1">
          <mxGeometry x="262" y="690" width="120" height="60" as="geometry" />
        </mxCell>
        <mxCell id="3iGg0btuq_YMwodRidnw-6" value="" style="endArrow=none;html=1;rounded=1;exitX=1;exitY=0.5;exitDx=0;exitDy=0;entryX=0.5;entryY=0;entryDx=0;entryDy=0;curved=0;" edge="1" parent="1" source="3iGg0btuq_YMwodRidnw-1" target="3iGg0btuq_YMwodRidnw-4">
          <mxGeometry width="50" height="50" relative="1" as="geometry">
            <mxPoint x="412" y="1040" as="sourcePoint" />
            <mxPoint x="462" y="990" as="targetPoint" />
            <Array as="points">
              <mxPoint x="322" y="630" />
            </Array>
          </mxGeometry>
        </mxCell>
        <mxCell id="3iGg0btuq_YMwodRidnw-14" style="edgeStyle=orthogonalEdgeStyle;rounded=1;orthogonalLoop=1;jettySize=auto;html=1;endArrow=none;startFill=0;entryX=0.25;entryY=1;entryDx=0;entryDy=0;curved=0;" edge="1" parent="1" source="3iGg0btuq_YMwodRidnw-10" target="3iGg0btuq_YMwodRidnw-13">
          <mxGeometry relative="1" as="geometry">
            <mxPoint x="660" y="640" as="targetPoint" />
          </mxGeometry>
        </mxCell>
        <mxCell id="3iGg0btuq_YMwodRidnw-15" value="1" style="edgeLabel;html=1;align=center;verticalAlign=middle;resizable=0;points=[];" vertex="1" connectable="0" parent="3iGg0btuq_YMwodRidnw-14">
          <mxGeometry x="-0.0833" y="1" relative="1" as="geometry">
            <mxPoint as="offset" />
          </mxGeometry>
        </mxCell>
        <mxCell id="3iGg0btuq_YMwodRidnw-10" value="Взаимодействует" style="rhombus;whiteSpace=wrap;html=1;" vertex="1" parent="1">
          <mxGeometry x="440" y="627" width="130" height="110" as="geometry" />
        </mxCell>
        <mxCell id="3iGg0btuq_YMwodRidnw-20" style="edgeStyle=orthogonalEdgeStyle;rounded=1;orthogonalLoop=1;jettySize=auto;html=1;entryX=1;entryY=0.5;entryDx=0;entryDy=0;endArrow=none;startFill=0;curved=0;" edge="1" parent="1" source="3iGg0btuq_YMwodRidnw-13" target="3iGg0btuq_YMwodRidnw-16">
          <mxGeometry relative="1" as="geometry">
            <Array as="points">
              <mxPoint x="760" y="890" />
            </Array>
          </mxGeometry>
        </mxCell>
        <mxCell id="3iGg0btuq_YMwodRidnw-21" style="edgeStyle=orthogonalEdgeStyle;rounded=1;orthogonalLoop=1;jettySize=auto;html=1;entryX=1;entryY=0.5;entryDx=0;entryDy=0;endArrow=none;startFill=0;curved=0;" edge="1" parent="1" source="3iGg0btuq_YMwodRidnw-13" target="3iGg0btuq_YMwodRidnw-17">
          <mxGeometry relative="1" as="geometry">
            <Array as="points">
              <mxPoint x="760" y="980" />
            </Array>
          </mxGeometry>
        </mxCell>
        <mxCell id="3iGg0btuq_YMwodRidnw-22" style="edgeStyle=orthogonalEdgeStyle;shape=connector;curved=0;rounded=1;orthogonalLoop=1;jettySize=auto;html=1;entryX=1;entryY=0.5;entryDx=0;entryDy=0;strokeColor=default;align=center;verticalAlign=middle;fontFamily=Helvetica;fontSize=11;fontColor=default;labelBackgroundColor=default;startFill=0;endArrow=none;" edge="1" parent="1" source="3iGg0btuq_YMwodRidnw-13" target="3iGg0btuq_YMwodRidnw-18">
          <mxGeometry relative="1" as="geometry">
            <Array as="points">
              <mxPoint x="760" y="1070" />
            </Array>
          </mxGeometry>
        </mxCell>
        <mxCell id="3iGg0btuq_YMwodRidnw-13" value="Бот" style="rounded=0;whiteSpace=wrap;html=1;" vertex="1" parent="1">
          <mxGeometry x="660" y="510" width="120" height="60" as="geometry" />
        </mxCell>
        <mxCell id="3iGg0btuq_YMwodRidnw-16" value="&lt;u&gt;ID&lt;/u&gt;" style="ellipse;whiteSpace=wrap;html=1;" vertex="1" parent="1">
          <mxGeometry x="590" y="850" width="120" height="80" as="geometry" />
        </mxCell>
        <mxCell id="3iGg0btuq_YMwodRidnw-17" value="Языковая модель" style="ellipse;whiteSpace=wrap;html=1;" vertex="1" parent="1">
          <mxGeometry x="580" y="940" width="120" height="80" as="geometry" />
        </mxCell>
        <mxCell id="3iGg0btuq_YMwodRidnw-18" value="Статус" style="ellipse;whiteSpace=wrap;html=1;" vertex="1" parent="1">
          <mxGeometry x="580" y="1030" width="120" height="80" as="geometry" />
        </mxCell>
        <mxCell id="3iGg0btuq_YMwodRidnw-23" value="&lt;u&gt;ID&lt;/u&gt;" style="ellipse;whiteSpace=wrap;html=1;" vertex="1" parent="1">
          <mxGeometry x="60" y="860" width="120" height="80" as="geometry" />
        </mxCell>
        <mxCell id="3iGg0btuq_YMwodRidnw-24" value="Зарплата" style="ellipse;whiteSpace=wrap;html=1;" vertex="1" parent="1">
          <mxGeometry x="60" y="1040" width="120" height="80" as="geometry" />
        </mxCell>
        <mxCell id="3iGg0btuq_YMwodRidnw-25" value="Опыт" style="ellipse;whiteSpace=wrap;html=1;" vertex="1" parent="1">
          <mxGeometry x="60" y="950" width="120" height="80" as="geometry" />
        </mxCell>
        <mxCell id="3iGg0btuq_YMwodRidnw-26" style="edgeStyle=orthogonalEdgeStyle;rounded=1;orthogonalLoop=1;jettySize=auto;html=1;entryX=1;entryY=0.5;entryDx=0;entryDy=0;curved=0;endArrow=none;startFill=0;" edge="1" parent="1" source="3iGg0btuq_YMwodRidnw-30" target="3iGg0btuq_YMwodRidnw-25">
          <mxGeometry relative="1" as="geometry" />
        </mxCell>
        <mxCell id="3iGg0btuq_YMwodRidnw-27" style="edgeStyle=orthogonalEdgeStyle;rounded=1;orthogonalLoop=1;jettySize=auto;html=1;exitX=0.5;exitY=1;exitDx=0;exitDy=0;entryX=1;entryY=0.5;entryDx=0;entryDy=0;curved=0;endArrow=none;startFill=0;" edge="1" parent="1" source="3iGg0btuq_YMwodRidnw-30" target="3iGg0btuq_YMwodRidnw-24">
          <mxGeometry relative="1" as="geometry" />
        </mxCell>
        <mxCell id="3iGg0btuq_YMwodRidnw-28" style="edgeStyle=orthogonalEdgeStyle;rounded=1;orthogonalLoop=1;jettySize=auto;html=1;entryX=0;entryY=0.5;entryDx=0;entryDy=0;curved=0;endArrow=none;startFill=0;" edge="1" parent="1" source="3iGg0btuq_YMwodRidnw-30" target="3iGg0btuq_YMwodRidnw-34">
          <mxGeometry relative="1" as="geometry" />
        </mxCell>
        <mxCell id="3iGg0btuq_YMwodRidnw-29" value="n" style="edgeLabel;html=1;align=center;verticalAlign=middle;resizable=0;points=[];" vertex="1" connectable="0" parent="3iGg0btuq_YMwodRidnw-28">
          <mxGeometry x="0.4815" y="2" relative="1" as="geometry">
            <mxPoint as="offset" />
          </mxGeometry>
        </mxCell>
        <mxCell id="3iGg0btuq_YMwodRidnw-30" value="Разработчик" style="rounded=0;whiteSpace=wrap;html=1;" vertex="1" parent="1">
          <mxGeometry x="260" y="960" width="120" height="60" as="geometry" />
        </mxCell>
        <mxCell id="3iGg0btuq_YMwodRidnw-31" value="" style="endArrow=none;html=1;rounded=1;exitX=1;exitY=0.5;exitDx=0;exitDy=0;entryX=0.35;entryY=0.017;entryDx=0;entryDy=0;curved=0;entryPerimeter=0;" edge="1" parent="1" source="3iGg0btuq_YMwodRidnw-23" target="3iGg0btuq_YMwodRidnw-30">
          <mxGeometry width="50" height="50" relative="1" as="geometry">
            <mxPoint x="410" y="1310" as="sourcePoint" />
            <mxPoint x="460" y="1260" as="targetPoint" />
            <Array as="points">
              <mxPoint x="280" y="900" />
            </Array>
          </mxGeometry>
        </mxCell>
        <mxCell id="3iGg0btuq_YMwodRidnw-32" style="edgeStyle=orthogonalEdgeStyle;rounded=1;orthogonalLoop=1;jettySize=auto;html=1;endArrow=none;startFill=0;entryX=0.5;entryY=1;entryDx=0;entryDy=0;curved=0;exitX=1;exitY=0.5;exitDx=0;exitDy=0;" edge="1" parent="1" source="3iGg0btuq_YMwodRidnw-34" target="3iGg0btuq_YMwodRidnw-13">
          <mxGeometry relative="1" as="geometry">
            <mxPoint x="660" y="780" as="targetPoint" />
            <Array as="points">
              <mxPoint x="506" y="860" />
              <mxPoint x="560" y="860" />
              <mxPoint x="560" y="800" />
              <mxPoint x="720" y="800" />
            </Array>
          </mxGeometry>
        </mxCell>
        <mxCell id="3iGg0btuq_YMwodRidnw-43" value="1" style="edgeLabel;html=1;align=center;verticalAlign=middle;resizable=0;points=[];fontFamily=Helvetica;fontSize=11;fontColor=default;labelBackgroundColor=default;" vertex="1" connectable="0" parent="3iGg0btuq_YMwodRidnw-32">
          <mxGeometry x="-0.1771" y="1" relative="1" as="geometry">
            <mxPoint as="offset" />
          </mxGeometry>
        </mxCell>
        <mxCell id="3iGg0btuq_YMwodRidnw-34" value="разрабатывает" style="rhombus;whiteSpace=wrap;html=1;" vertex="1" parent="1">
          <mxGeometry x="376" y="808" width="130" height="110" as="geometry" />
        </mxCell>
        <mxCell id="3iGg0btuq_YMwodRidnw-44" value="&lt;u&gt;ID&lt;/u&gt;" style="ellipse;whiteSpace=wrap;html=1;" vertex="1" parent="1">
          <mxGeometry x="60" y="30" width="120" height="80" as="geometry" />
        </mxCell>
        <mxCell id="3iGg0btuq_YMwodRidnw-45" value="опыт" style="ellipse;whiteSpace=wrap;html=1;" vertex="1" parent="1">
          <mxGeometry x="60" y="210" width="120" height="80" as="geometry" />
        </mxCell>
        <mxCell id="3iGg0btuq_YMwodRidnw-46" value="зарплата" style="ellipse;whiteSpace=wrap;html=1;" vertex="1" parent="1">
          <mxGeometry x="60" y="120" width="120" height="80" as="geometry" />
        </mxCell>
        <mxCell id="3iGg0btuq_YMwodRidnw-47" style="edgeStyle=orthogonalEdgeStyle;rounded=1;orthogonalLoop=1;jettySize=auto;html=1;entryX=1;entryY=0.5;entryDx=0;entryDy=0;curved=0;endArrow=none;startFill=0;" edge="1" parent="1" source="3iGg0btuq_YMwodRidnw-51" target="3iGg0btuq_YMwodRidnw-46">
          <mxGeometry relative="1" as="geometry" />
        </mxCell>
        <mxCell id="3iGg0btuq_YMwodRidnw-48" style="edgeStyle=orthogonalEdgeStyle;rounded=1;orthogonalLoop=1;jettySize=auto;html=1;exitX=0.5;exitY=1;exitDx=0;exitDy=0;entryX=1;entryY=0.5;entryDx=0;entryDy=0;curved=0;endArrow=none;startFill=0;" edge="1" parent="1" source="3iGg0btuq_YMwodRidnw-51" target="3iGg0btuq_YMwodRidnw-45">
          <mxGeometry relative="1" as="geometry" />
        </mxCell>
        <mxCell id="3iGg0btuq_YMwodRidnw-49" style="edgeStyle=orthogonalEdgeStyle;rounded=1;orthogonalLoop=1;jettySize=auto;html=1;entryX=0;entryY=0.5;entryDx=0;entryDy=0;curved=0;endArrow=none;startFill=0;" edge="1" parent="1" source="3iGg0btuq_YMwodRidnw-51" target="3iGg0btuq_YMwodRidnw-55">
          <mxGeometry relative="1" as="geometry">
            <mxPoint x="434" y="160" as="targetPoint" />
            <Array as="points">
              <mxPoint x="480" y="160" />
              <mxPoint x="480" y="160" />
            </Array>
          </mxGeometry>
        </mxCell>
        <mxCell id="3iGg0btuq_YMwodRidnw-50" value="n" style="edgeLabel;html=1;align=center;verticalAlign=middle;resizable=0;points=[];" vertex="1" connectable="0" parent="3iGg0btuq_YMwodRidnw-49">
          <mxGeometry x="0.4815" y="2" relative="1" as="geometry">
            <mxPoint as="offset" />
          </mxGeometry>
        </mxCell>
        <mxCell id="3iGg0btuq_YMwodRidnw-51" value="ML - разработчик" style="rounded=0;whiteSpace=wrap;html=1;" vertex="1" parent="1">
          <mxGeometry x="260" y="130" width="120" height="60" as="geometry" />
        </mxCell>
        <mxCell id="3iGg0btuq_YMwodRidnw-52" value="" style="endArrow=none;html=1;rounded=1;exitX=1;exitY=0.5;exitDx=0;exitDy=0;entryX=0.5;entryY=0;entryDx=0;entryDy=0;curved=0;" edge="1" parent="1" source="3iGg0btuq_YMwodRidnw-44" target="3iGg0btuq_YMwodRidnw-51">
          <mxGeometry width="50" height="50" relative="1" as="geometry">
            <mxPoint x="410" y="480" as="sourcePoint" />
            <mxPoint x="460" y="430" as="targetPoint" />
            <Array as="points">
              <mxPoint x="320" y="70" />
            </Array>
          </mxGeometry>
        </mxCell>
        <mxCell id="3iGg0btuq_YMwodRidnw-53" style="edgeStyle=orthogonalEdgeStyle;rounded=1;orthogonalLoop=1;jettySize=auto;html=1;endArrow=none;startFill=0;entryX=0.5;entryY=0;entryDx=0;entryDy=0;curved=0;" edge="1" parent="1" source="3iGg0btuq_YMwodRidnw-55" target="3iGg0btuq_YMwodRidnw-13">
          <mxGeometry relative="1" as="geometry">
            <mxPoint x="660" y="200" as="targetPoint" />
          </mxGeometry>
        </mxCell>
        <mxCell id="3iGg0btuq_YMwodRidnw-54" value="1" style="edgeLabel;html=1;align=center;verticalAlign=middle;resizable=0;points=[];" vertex="1" connectable="0" parent="3iGg0btuq_YMwodRidnw-53">
          <mxGeometry x="-0.0833" y="1" relative="1" as="geometry">
            <mxPoint as="offset" />
          </mxGeometry>
        </mxCell>
        <mxCell id="3iGg0btuq_YMwodRidnw-55" value="обучает используемые модели" style="rhombus;whiteSpace=wrap;html=1;" vertex="1" parent="1">
          <mxGeometry x="642.5" y="90" width="155" height="140" as="geometry" />
        </mxCell>
        <mxCell id="3iGg0btuq_YMwodRidnw-67" style="edgeStyle=orthogonalEdgeStyle;shape=connector;curved=0;rounded=1;orthogonalLoop=1;jettySize=auto;html=1;entryX=1;entryY=0.5;entryDx=0;entryDy=0;strokeColor=default;align=center;verticalAlign=middle;fontFamily=Helvetica;fontSize=11;fontColor=default;labelBackgroundColor=default;startFill=0;endArrow=none;" edge="1" parent="1" source="3iGg0btuq_YMwodRidnw-63" target="3iGg0btuq_YMwodRidnw-64">
          <mxGeometry relative="1" as="geometry">
            <Array as="points">
              <mxPoint x="324" y="342" />
            </Array>
          </mxGeometry>
        </mxCell>
        <mxCell id="3iGg0btuq_YMwodRidnw-68" style="edgeStyle=orthogonalEdgeStyle;shape=connector;curved=0;rounded=1;orthogonalLoop=1;jettySize=auto;html=1;entryX=1;entryY=0.5;entryDx=0;entryDy=0;strokeColor=default;align=center;verticalAlign=middle;fontFamily=Helvetica;fontSize=11;fontColor=default;labelBackgroundColor=default;startFill=0;endArrow=none;" edge="1" parent="1" source="3iGg0btuq_YMwodRidnw-63" target="3iGg0btuq_YMwodRidnw-65">
          <mxGeometry relative="1" as="geometry" />
        </mxCell>
        <mxCell id="3iGg0btuq_YMwodRidnw-69" style="edgeStyle=orthogonalEdgeStyle;shape=connector;curved=0;rounded=1;orthogonalLoop=1;jettySize=auto;html=1;entryX=1;entryY=0.5;entryDx=0;entryDy=0;strokeColor=default;align=center;verticalAlign=middle;fontFamily=Helvetica;fontSize=11;fontColor=default;labelBackgroundColor=default;startFill=0;endArrow=none;" edge="1" parent="1" source="3iGg0btuq_YMwodRidnw-63" target="3iGg0btuq_YMwodRidnw-66">
          <mxGeometry relative="1" as="geometry">
            <Array as="points">
              <mxPoint x="324" y="532" />
            </Array>
          </mxGeometry>
        </mxCell>
        <mxCell id="3iGg0btuq_YMwodRidnw-71" style="edgeStyle=orthogonalEdgeStyle;shape=connector;curved=0;rounded=1;orthogonalLoop=1;jettySize=auto;html=1;entryX=0.5;entryY=0;entryDx=0;entryDy=0;strokeColor=default;align=center;verticalAlign=middle;fontFamily=Helvetica;fontSize=11;fontColor=default;labelBackgroundColor=default;startFill=0;endArrow=none;" edge="1" parent="1" source="3iGg0btuq_YMwodRidnw-63" target="3iGg0btuq_YMwodRidnw-70">
          <mxGeometry relative="1" as="geometry" />
        </mxCell>
        <mxCell id="3iGg0btuq_YMwodRidnw-73" value="n" style="edgeLabel;html=1;align=center;verticalAlign=middle;resizable=0;points=[];fontFamily=Helvetica;fontSize=11;fontColor=default;labelBackgroundColor=default;" vertex="1" connectable="0" parent="3iGg0btuq_YMwodRidnw-71">
          <mxGeometry x="0.5556" y="1" relative="1" as="geometry">
            <mxPoint as="offset" />
          </mxGeometry>
        </mxCell>
        <mxCell id="3iGg0btuq_YMwodRidnw-63" value="Оператор тех. поддержки" style="rounded=0;whiteSpace=wrap;html=1;fontFamily=Helvetica;fontSize=11;fontColor=default;labelBackgroundColor=default;" vertex="1" parent="1">
          <mxGeometry x="260" y="402" width="120" height="60" as="geometry" />
        </mxCell>
        <mxCell id="3iGg0btuq_YMwodRidnw-64" value="&lt;u&gt;ID&lt;/u&gt;" style="ellipse;whiteSpace=wrap;html=1;fontFamily=Helvetica;fontSize=11;fontColor=default;labelBackgroundColor=default;" vertex="1" parent="1">
          <mxGeometry x="60" y="302" width="120" height="80" as="geometry" />
        </mxCell>
        <mxCell id="3iGg0btuq_YMwodRidnw-65" value="Область консультации" style="ellipse;whiteSpace=wrap;html=1;fontFamily=Helvetica;fontSize=11;fontColor=default;labelBackgroundColor=none;" vertex="1" parent="1">
          <mxGeometry x="60" y="392" width="120" height="80" as="geometry" />
        </mxCell>
        <mxCell id="3iGg0btuq_YMwodRidnw-66" value="Телефонный номер / почта" style="ellipse;whiteSpace=wrap;html=1;fontFamily=Helvetica;fontSize=11;fontColor=default;labelBackgroundColor=none;" vertex="1" parent="1">
          <mxGeometry x="64" y="492" width="120" height="80" as="geometry" />
        </mxCell>
        <mxCell id="3iGg0btuq_YMwodRidnw-72" style="edgeStyle=orthogonalEdgeStyle;shape=connector;curved=0;rounded=1;orthogonalLoop=1;jettySize=auto;html=1;entryX=0.75;entryY=0;entryDx=0;entryDy=0;strokeColor=default;align=center;verticalAlign=middle;fontFamily=Helvetica;fontSize=11;fontColor=default;labelBackgroundColor=default;startFill=0;endArrow=none;" edge="1" parent="1" source="3iGg0btuq_YMwodRidnw-70" target="3iGg0btuq_YMwodRidnw-4">
          <mxGeometry relative="1" as="geometry" />
        </mxCell>
        <mxCell id="3iGg0btuq_YMwodRidnw-74" value="m" style="edgeLabel;html=1;align=center;verticalAlign=middle;resizable=0;points=[];fontFamily=Helvetica;fontSize=11;fontColor=default;labelBackgroundColor=default;" vertex="1" connectable="0" parent="3iGg0btuq_YMwodRidnw-72">
          <mxGeometry x="0.1413" y="1" relative="1" as="geometry">
            <mxPoint as="offset" />
          </mxGeometry>
        </mxCell>
        <mxCell id="3iGg0btuq_YMwodRidnw-70" value="&lt;span&gt;Помогает с проблемами&lt;/span&gt;" style="rhombus;whiteSpace=wrap;html=1;fontFamily=Helvetica;fontSize=11;fontColor=default;labelBackgroundColor=none;" vertex="1" parent="1">
          <mxGeometry x="384" y="490" width="110" height="100" as="geometry" />
        </mxCell>
      </root>
    </mxGraphModel>
  </diagram>
</mxfile>
